<svg xmlns="http://www.w3.org/2000/svg" viewBox="0 0 1440 320" width="100%" height="100%">
    <path fill="#0099ff" fill-opacity="1" d="M0,32L26.7,26.7C53.3,21,107,11,160,21.3C213.3,32,267,64,320,64C373.3,64,427,32,480,64C533.3,96,587,192,640,224C693.3,256,747,224,800,176C853.3,128,907,64,960,64C1013.3,64,1067,128,1120,160C1173.3,192,1227,192,1280,170.7C1333.3,149,1387,107,1413,85.3L1440,64L1440,320L1413.3,320C1386.7,320,1333,320,1280,320C1226.7,320,1173,320,1120,320C1066.7,320,1013,320,960,320C906.7,320,853,320,800,320C746.7,320,693,320,640,320C586.7,320,533,320,480,320C426.7,320,373,320,320,320C266.7,320,213,320,160,320C106.7,320,53,320,27,320L0,320Z"></path>
</svg>