<svg xmlns="http://www.w3.org/2000/svg" viewBox="0 0 1440 320" width="100%" height="100%">
    <path fill="#0099ff" fill-opacity="1" d="M0,160L26.7,165.3C53.3,171,107,181,160,170.7C213.3,160,267,128,320,133.3C373.3,139,427,181,480,181.3C533.3,181,587,139,640,128C693.3,117,747,139,800,176C853.3,213,907,267,960,272C1013.3,277,1067,235,1120,234.7C1173.3,235,1227,277,1280,282.7C1333.3,288,1387,256,1413,240L1440,224L1440,0L1413.3,0C1386.7,0,1333,0,1280,0C1226.7,0,1173,0,1120,0C1066.7,0,1013,0,960,0C906.7,0,853,0,800,0C746.7,0,693,0,640,0C586.7,0,533,0,480,0C426.7,0,373,0,320,0C266.7,0,213,0,160,0C106.7,0,53,0,27,0L0,0Z"></path>
</svg>